<?xml version="1.0" encoding="utf-8"?>
<!-- Generator: Adobe Illustrator 19.2.0, SVG Export Plug-In . SVG Version: 6.00 Build 0)  -->
<svg version="1.1" id="Layer_1" xmlns="http://www.w3.org/2000/svg" xmlns:xlink="http://www.w3.org/1999/xlink" x="0px" y="0px"
	 viewBox="0 0 321 242" style="enable-background:new 0 0 321 242;" xml:space="preserve">
<style type="text/css">
	.st0{fill:#E61D4B;}
	.st1{fill:#F1822E;}
	.st2{fill:#F5F8F8;}
	.st3{fill:#FFFFFF;}
	.st4{font-family:'Helvetica-Bold';}
	.st5{font-size:48.0452px;}
	.st6{fill:#2A2A2A;}
</style>
<g>
	<path class="st0" d="M143.4,41.6l-13.2,18.8c0,0-61.1-0.9-74.5,64.1C55.7,124.5,50.8,42.3,143.4,41.6z"/>
	<path class="st1" d="M149.7,207.3l-13.2-18.8c0,0-61.1,0.9-74.5-64.1C61.9,124.5,57.1,206.6,149.7,207.3z"/>
	<polygon class="st2" points="137.4,91.4 217.5,92.1 240.5,122.7 217.5,155.1 137.4,156.2 202.2,146.1 220,122.7 202.2,102.2 	"/>
	<text transform="matrix(1 0 0 1 70.8633 136.3223)" class="st3 st4 st5">eJade</text>
	<polygon class="st0" points="237,145.2 251.7,155 274.6,122.7 252.6,93.5 237.1,103.1 254.1,122.7 	"/>
	<polygon class="st1" points="272.2,145.2 286.9,155 309.8,122.7 287.8,93.5 272.3,103.1 289.2,122.7 	"/>
	<g>
		<path class="st6" d="M104.8,37.2L89.3,21.8c-10.1,4.3-19.5,10-27.8,16.9l6.8,22C78.3,50.2,90.8,42.1,104.8,37.2z"/>
		<path class="st6" d="M66.1,63.1l-22.3-5.9c-6.5,8.6-11.8,18.2-15.7,28.5l17.4,16.1C49.2,87.2,56.4,74,66.1,63.1z"/>
		<path class="st6" d="M133.2,32.1c6.4-0.1,12.6,0.4,18.6,1.5l-5.4-19.6c-5.3-0.7-10.8-1-16.3-0.8c-5.5,0.1-10.9,0.7-16.2,1.5
			l-4.8,21.2C116.8,33.6,124.9,32.3,133.2,32.1z"/>
		<path class="st6" d="M42.7,126.7c-0.2-7.7,0.6-15.1,2.2-22.3L22,110.7c-0.7,5.3-1,10.8-0.8,16.3s0.7,10.9,1.5,16.2l23,5.2
			C43.9,141.4,42.8,134.2,42.7,126.7z"/>
		<path class="st6" d="M195.1,54l4.8-18.4c-8.6-6.5-18.2-11.8-28.5-15.7l-13.7,14.8C171.7,38.3,184.4,45,195.1,54z"/>
		<path class="st6" d="M71.1,191.4l-5.8,21.9c8.6,6.5,18.2,11.8,28.5,15.7l14.6-15.7C94.2,209,81.5,201.4,71.1,191.4z"/>
		<path class="st6" d="M46.5,151.1l-16.6,16.8c4.3,10.1,10,19.5,16.9,27.8l21.8-6.7C58.4,178.3,50.7,165.4,46.5,151.1z"/>
	</g>
</g>
</svg>
