<?xml version="1.0" encoding="utf-8"?>
<!-- Generator: Adobe Illustrator 19.2.0, SVG Export Plug-In . SVG Version: 6.00 Build 0)  -->
<svg version="1.1" id="Layer_1" xmlns="http://www.w3.org/2000/svg" xmlns:xlink="http://www.w3.org/1999/xlink" x="0px" y="0px"
	 viewBox="0 0 180.7 117.2" style="enable-background:new 0 0 180.7 117.2;" xml:space="preserve">
<style type="text/css">
	.st0{fill:#FFFFFF;}
	.st1{font-family:'Helvetica-Bold';}
	.st2{font-size:31.7967px;}
	.st3{fill:#E61D4B;}
	.st4{fill:#F1822E;}
	.st5{fill:#CCCCCC;}
</style>
<text transform="matrix(1 0 0 1 28.6072 66.7977)" class="st0 st1 st2">eJade</text>
<path class="st3" d="M67.1,16.6l-7,10c0,0-32.4-0.5-39.5,34C20.5,60.5,18,16.9,67.1,16.6z"/>
<path class="st4" d="M70.4,104.5l-7-10c0,0-32.4,0.5-39.5-34C23.9,60.5,21.3,104.1,70.4,104.5z"/>
<polygon class="st5" points="88,38.7 130.4,39.1 142.6,55.4 130.4,72.5 88,73.1 122.3,67.7 131.7,55.4 122.3,44.5 "/>
<polygon class="st3" points="140.8,67.3 148.6,72.5 160.7,55.4 149.1,39.8 140.9,45 149.8,55.4 "/>
<polygon class="st4" points="159.4,67.3 167.2,72.5 179.4,55.4 167.7,39.8 159.5,45 168.5,55.4 "/>
<g>
	<path class="st5" d="M46.6,14.2L38.4,6c-5.4,2.3-10.3,5.3-14.7,9l3.6,11.7C32.6,21.1,39.2,16.8,46.6,14.2z"/>
	<path class="st5" d="M26.1,27.9l-11.8-3.1c-3.5,4.6-6.3,9.7-8.3,15.1l9.2,8.5C17.1,40.7,20.9,33.7,26.1,27.9z"/>
	<path class="st5" d="M61.7,11.5c3.4-0.1,6.7,0.2,9.9,0.8L68.7,1.8c-2.8-0.4-5.7-0.5-8.6-0.4s-5.8,0.3-8.6,0.8l-2.6,11.2
		C53,12.3,57.3,11.6,61.7,11.5z"/>
	<path class="st5" d="M13.6,61.7c-0.1-4.1,0.3-8,1.2-11.8L2.7,53.2c-0.4,2.8-0.5,5.7-0.4,8.6c0.1,2.9,0.3,5.8,0.8,8.6l12.2,2.8
		C14.3,69.5,13.7,65.7,13.6,61.7z"/>
	<path class="st5" d="M94.5,23.1l2.6-9.7C92.5,9.9,87.4,7.1,82,5.1L74.7,13C82.1,14.8,88.8,18.3,94.5,23.1z"/>
	<path class="st5" d="M28.7,96l-3.1,11.6c4.6,3.5,9.7,6.3,15.1,8.3l7.7-8.4C41,105.3,34.2,101.3,28.7,96z"/>
	<path class="st5" d="M15.7,74.6l-8.8,8.9c2.3,5.4,5.3,10.3,9,14.7l11.5-3.6C22,89.1,17.9,82.3,15.7,74.6z"/>
</g>
</svg>
